<svg xmlns="http://www.w3.org/2000/svg" viewBox="0 0 64 64">
  <defs>
    <linearGradient id="g" x1="0%" y1="0%" x2="100%" y2="100%">
      <stop offset="0%" stop-color="#6366f1"/>
      <stop offset="100%" stop-color="#a78bfa"/>
    </linearGradient>
  </defs>
  <rect width="64" height="64" rx="14" fill="url(#g)"/>
  <g transform="translate(12,10)" fill="none" stroke="#fff" stroke-width="2.5" stroke-linecap="round" stroke-linejoin="round">
    <!-- Brain/AI icon -->
    <path d="M20 4c-5 0-9 3.5-9 8 0 2.5 1.2 4.8 3 6.3V24l3-2 3 2 3-2 3 2v-5.7c1.8-1.5 3-3.8 3-6.3 0-4.5-4-8-9-8z"/>
    <!-- Neural dots -->
    <circle cx="15" cy="10" r="1.5" fill="#fff"/>
    <circle cx="25" cy="10" r="1.5" fill="#fff"/>
    <circle cx="20" cy="15" r="1.5" fill="#fff"/>
    <line x1="15" y1="10" x2="20" y2="15"/>
    <line x1="25" y1="10" x2="20" y2="15"/>
    <!-- Desk lines -->
    <line x1="2" y1="34" x2="38" y2="34"/>
    <line x1="6" y1="34" x2="6" y2="42"/>
    <line x1="34" y1="34" x2="34" y2="42"/>
    <!-- Monitor -->
    <rect x="10" y="26" width="20" height="8" rx="1.5" fill="none"/>
    <line x1="20" y1="34" x2="20" y2="37"/>
    <line x1="16" y1="37" x2="24" y2="37"/>
  </g>
</svg>
